Snow.White.and.the.Huntsman.TS.V3.XviD - WBZ


Source........::: Snow.White.and.the.Huntsman.TS.LD.German.iNTERNAL.XViD(NEW)
Audio Source .... Snow White and the Huntsmen 2012 TS XviD-ADTRG

Video


General
Complete name : Snow.White.and.the.Huntsman.TS.V3.XviD - WBZ.avi
Format : AVI
Format/Info : Audio Video Interleave
File size : 1.30 GiB
Duration : 1h 57mn
Overall bit rate : 1 586 Kbps

Video
ID : 0
Format : MPEG-4 Visual
Format profile : Advanced Simple@L5
Format settings, BVOP : 2
Format settings, QPel : No
Format settings, GMC : No warppoints
Format settings, Matrix : Default (H.263)
Codec ID : XVID
Codec ID/Hint : XviD
Duration : 1h 57mn
Bit rate : 1 449 Kbps
Width : 720 pixels
Height : 320 pixels
Display aspect ratio : 2.25:1
Frame rate : 23.976 fps
Color space : YUV
Chroma subsampling : 4:2:0
Bit depth : 8 bits
Scan type : Progressive
Compression mode : Lossy
Bits/(Pixel*Frame) : 0.262
Stream size : 1.19 GiB (91%)
Writing library : XviD 1.2.1 (UTC 2008-12-04)



Audio


Audio
ID : 1
Format : MPEG Audio
Codec ID : 55
Codec ID/Hint : MP3
Duration : 1h 57mn
Bit rate : 128 Kbps
Channel(s) : 2 channels
Sampling rate : 44.1 KHz
Compression mode : Lossy
Stream size : 107 MiB (8%)
Alignment : Split accross interleaves
Interleave, duration : 42 ms (1.00 video frame)
Interleave, preload duration : 500 ms


Info


IMDB LINK....:: http://www.imdb.com/title/tt1735898/
Audio.............:: English
Subtitles........:: None


Screens 
http://i1090.photobucket.com/albums/i363/Lnboobear/SnowWhiteandtheHuntsmanTSvoltagemmmmmm.png 
http://i1090.photobucket.com/albums/i363/Lnboobear/SnowWhiteandtheHuntsmanTSvoltagemmmmmmmmmm.png 
http://i1090.photobucket.com/albums/i363/Lnboobear/SnowWhiteandtheHuntsmanTSvoltagemmmmmmmmmmm.png 
http://i1090.photobucket.com/albums/i363/Lnboobear/SnowWhiteandtheHuntsmanTSvoltagemmm.png 
http://i1090.photobucket.com/albums/i363/Lnboobear/SnowWhiteandtheHuntsmanTSvoltage.png 
http://i1090.photobucket.com/albums/i363/Lnboobear/SnowWhiteandtheHuntsmanTSvoltagemmmm.png 
http://i1090.photobucket.com/albums/i363/Lnboobear/SnowWhiteandtheHuntsmanTSvoltagemmmmmmmmmmmmm.png